<?xml version="1.0" encoding="utf-8"?>
<!-- Generator: Adobe Illustrator 24.3.0, SVG Export Plug-In . SVG Version: 6.00 Build 0)  -->
<svg version="1.1" id="Layer_1" xmlns="http://www.w3.org/2000/svg" xmlns:xlink="http://www.w3.org/1999/xlink" x="0px" y="0px"
	 viewBox="0 0 1920 1080" style="enable-background:new 0 0 1920 1080;" xml:space="preserve">
<style type="text/css">
	.st0{fill:#FDBA02;}
	.st1{fill:#F1C136;}
	.st2{fill:#F1C43B;}
	.st3{fill:#F3C02D;}
	.st4{fill:#FCF0B6;}
	.st5{fill:#F1C338;}
</style>
<g>
	<path class="st0" d="M1310.54,623.44c0.05,0.24,0.18,0.42,0.39,0.53c-0.01,0.33-0.01,0.67-0.02,1c-0.03,1.23,0.67,1.89,1.77,2.21
		c0.29,0.77,0.56,1.56,1.63,1.45c0,0,0.01-0.01,0.01-0.01c-0.51,1.56,0.18,2.22,1.69,2.28l-0.02-0.01
		c-0.07,1.34,0.59,2.02,1.91,2.09l0,0c-0.46,2.06,0.83,3.78,1.31,6.02c-1.68,0-3.16,0-4.64,0c-109.6,0-219.2,0-328.8-0.01
		c-5.63,0-11.29,0.32-16.85-0.93l0.01-0.03c0.06-1.48-0.68-2.1-2.12-1.95c-0.27-0.04-0.51-0.15-0.71-0.33
		c-1.93-4.52-5.57-7.14-9.95-8.94c-0.67-2.54-2.42-3.78-4.93-4.09c-3.82-5.07-7.81-9.91-14.3-11.71c-0.33-0.3-0.65-0.61-0.98-0.91
		c-0.1-3.22-2.75-3.95-4.97-5.09c-3.05-4.3-6.54-8.02-12.12-8.86c0,0,0.03,0.02,0.03,0.02c-1.02-2.18-2.31-4.02-5.06-4.01l0.2-0.17
		c0,0-0.19,0.18-0.19,0.18c0.27-1.29-0.35-2.27-1.26-3.04c-5.81-4.97-11.63-9.93-17.52-14.8c-0.5-0.41-1.57-0.12-2.38-0.16
		c-0.27-0.3-0.54-0.6-0.81-0.9c0.41-1.87-1.16-2.94-2.17-3.64c-4.67-3.29-8.48-7.56-13.19-10.84c-4.73-3.29-8.92-7.39-13.22-11.27
		c-1.29-1.16-4.18-1.54-3.64-3.53c0.57-2.13,3.18-0.77,4.88-1.04c0.97-0.16,1.99-0.03,2.99-0.03c75.75,0,151.49,0,227.24-0.01
		c2.45,0,5.52,0.68,6.55-2.24c0.87-2.48-0.76-4.7-2.67-6.49c-6.03-5.67-10.44-12.72-15.88-18.92c-8.62-9.83-17.31-19.63-25.61-29.73
		c-3.04-3.7-7.08-6.62-9.44-10.67c-4.28-7.35-10.39-13.14-15.98-19.25c-7.53-8.23-13.57-17.7-21.77-25.36
		c-1.93-1.8-2.04-5.43-4.6-6.85c-3.31-1.84-5.64-4.6-7.73-7.49c-8.79-12.18-19.61-22.63-28.87-34.42
		c-7.66-9.76-16.12-18.88-24.02-28.45c-1.74-2.11-3.49-3.89-6.01-4.9c-0.3-0.27-0.6-0.53-0.9-0.8c0.26-2.42-1.26-3.98-2.67-5.62
		c-6.49-7.5-13.03-14.95-19.39-22.54c-4.21-5.02-5.98-5.22-9.34,0.31c-6.91,11.38-16.5,20.89-22.8,32.64
		c-2.15,4.01-5.62,7.32-6.46,12.02c0,0,0.02-0.03,0.02-0.03c-0.4,0.29-0.8,0.58-1.2,0.87c-0.06,0.51-0.13,1.01-0.19,1.52
		c0,0-0.15,0.34-0.15,0.34c-2.65,2.03-5.41,3.95-6.63,7.28c-0.28,0.28-0.57,0.57-0.85,0.85c-0.07,0.31-0.13,0.63-0.18,0.95
		c-0.32,0.36-0.64,0.72-0.96,1.08c0.13,0.49,0.25,0.97,0.38,1.46c-0.27,0.48-0.55,0.96-0.82,1.44c-1.22,0.23-1.65,1.01-1.49,2.19
		c-0.5,0.6-1.01,1.19-1.51,1.79c-3.21,2.94-6.14,6.08-7.35,10.43c0.01,0.27-0.11,0.48-0.33,0.63c-2.36,0.94-3.5,2.74-3.71,5.21
		c0,0,0.03-0.06,0.02-0.06c-4.16,3.48-6.55,8.24-9.24,12.79c-1.22,0.38-2.53,0.73-0.77,2.17c-0.18,0.28-0.35,0.55-0.53,0.83
		c-1.44,0.01-2.65,0.2-1.64,2.11c-0.21,0.28-0.41,0.55-0.62,0.83c-3.08,0.97-4.31,3.19-4.29,6.27c0,0,0-0.03,0-0.03
		c-2.31-0.38-3.2,0.74-3.1,2.92c-0.42,2.85-4.53,3.7-3.87,7.13c0,0,0.02-0.05,0.02-0.05c-0.63,0.17-0.92,0.55-0.73,1.22
		c0,0-0.03,0.09-0.03,0.09c-1.51-0.53-2.19,0.17-2.38,1.6c-0.66,1.72-2.28,2.67-3.28,4.21c-6.68,10.24-13.69,20.26-20.66,30.31
		c-8.86,12.77-18.17,25.21-26.58,38.31c-6.76,10.53-14.58,20.38-21.37,30.9c-3.68,5.7-9.59,9.73-11.86,16.37
		c-0.77,2.26-1.96,4.06-3.69,5.77c-2.44,2.42-2.58,5.61,0.16,7.72c3.78,2.91,6.62,6.82,10.8,9.32c7.22,4.32,11.33,12.38,19.12,16.11
		c2.57,1.23,4.53,3.35,6.45,5.43c1.37,1.49,2.76,2.98,5.11,2.34c0,0-0.01-0.01-0.01-0.01c1,4.28,4.41,5.74,8.08,6.91l-0.09,0.25
		c0,0,0.05-0.26,0.05-0.26c0.41,2.3,3.38,3.03,3.69,4.87c0.62,3.64,2.64,3.66,5.33,3.11c2.94,5.86,8.89,8.69,13.48,12.79
		c3.61,3.22,6.45,8.07,12.1,8.59c0,0,0.08,0.07,0.08,0.07c0.08,1.49,1.11,2.39,2.1,3.25c10.98,9.53,21.96,19.05,32.98,28.52
		c4.7,4.03,9.8,7.64,14.21,11.96c5.6,5.48,12.44,9.38,17.99,14.88c0.34,0.33,1.27,0.06,1.93,0.07c0,0-0.05-0.02-0.05-0.02
		c0.57,2.34,1.87,4.04,3.86,5.49c5.89,4.29,11.62,8.78,16.88,13.86c3.28,3.16,6.33,7.16,9.88,9.25c4.82,2.84,6.4,5.73,6.39,10.91
		c-0.1,59.41-0.07,118.83-0.07,178.24c0,1.16,0.02,2.33-0.02,3.49c-0.03,0.97,0.15,2.25-1.14,2.37c-0.63,0.06-1.6-0.63-1.99-1.25
		c-1.39-2.19-3.07-3.9-5.74-4.37c0,0-0.06-0.05-0.06-0.05c-0.1-0.92-0.44-1.62-1.51-1.64c-0.24-0.06-0.41-0.2-0.51-0.43
		c-0.06-1.52-0.25-2.92-2.38-2.43c0,0-0.05-0.05-0.05-0.05c-0.61-3.33-1.84-6.04-5.86-6.09c0.01-0.66,0.3-1.61-0.03-1.93
		c-5.65-5.54-9.19-13.26-15.37-17.84c-8.35-6.18-14.31-14.55-21.23-21.78c-8.21-8.57-16.78-17.03-24.6-26.13
		c-9.61-11.19-20.22-21.59-30.27-32.46c-1.12-1.21-2.59-2.08-4.41-1.94c0,0,0.04,0.02,0.04,0.02c-0.32-0.36-0.65-0.73-0.97-1.09
		c0,0,0.02,0.02,0.02,0.02c-4.14-6.14-8.33-12.23-14.96-16.05c0,0,0.01,0.01,0.01,0.01c-0.32-0.34-0.65-0.69-0.97-1.03
		c0,0,0-0.01,0-0.01c-1.04-3.54-3.6-5.62-6.8-7.1c0,0-0.09-0.09-0.09-0.09c-2.77-7.35-8.85-11.61-14.88-15.91
		c-0.7-0.74-1.4-1.47-2.1-2.21c0.44-3.88-3.32-4.54-5.14-6.69c-0.26-0.43,0.42-1.77-1.02-1.04c-0.37,0.04-0.75,0.09-1.12,0.13
		c-0.23-0.23-0.45-0.46-0.68-0.69c-0.19-3.85-3.12-5.16-6.04-6.48c0,0-0.06-0.07-0.06-0.07c-0.04-1.17-0.61-1.84-1.8-1.93
		c-0.26-0.12-0.41-0.32-0.46-0.6c-0.02-0.69-0.36-1.07-1.06-1.11c0,0-0.02,0-0.02,0c0.15-4.07-1.94-5.97-5.88-6.08
		c0,0,0.01,0.01,0.01,0.01c1.3-4-4.5-4.51-3.99-8.13c-0.3-0.29-0.59-0.57-0.89-0.86c-1.27-0.07-2.53-0.14-3.8-0.21
		c-1.01-1.15-2.03-2.31-3.04-3.46c-0.35-2.5-1.5-4.23-4.25-4.42c-0.31-0.34-0.62-0.67-0.93-1.01c0.52-1.98-0.96-2.9-2.11-4
		c0.09-1.34-0.58-1.98-1.88-2.02c-2.78-0.96-3.2-4.93-6.57-5.14c-0.29-0.16-0.46-0.41-0.5-0.73c-0.1-2.52-1.51-3.81-3.92-4.14
		c-0.33-0.34-0.65-0.68-0.98-1.02c0.05-1.33-0.6-2-1.92-2.04c0,0-0.04-0.03-0.04-0.03c-0.11-1.98-1.55-2.99-2.95-4.03
		c-0.49-0.24-0.97-0.48-1.46-0.72c-0.51-0.48-1.02-0.96-1.52-1.44c-0.18-1.45-0.92-2.38-2.41-2.62c-0.26-0.31-0.53-0.62-0.79-0.93
		c0.26-1.25-0.54-2.16-1.04-3.16c0.25-0.82,1.5-1.81,0.36-2.44c-1.2-0.66-2.29,0.55-3.34,1.2l-0.35,0.03
		c-0.86-0.92-1.71-1.84-2.57-2.76c0.03-0.34,0.06-0.68,0.09-1.03c0.74-1.44-0.63-0.77-1.05-1.04c-0.32-0.05-0.63-0.05-0.95-0.01
		c0,0-0.03-0.03-0.03-0.03c-0.39-0.96-0.78-1.92-1.17-2.88c-1.12-1.61-2.08-3.38-3.41-4.78c-2.12-2.23-3.07-6.27-7.49-5.24
		c0,0,0.01,0.01,0.01,0.01c0.44-4.6-2.42-6.13-6.27-6.74c-1.72-4.85-4.87-8.35-9.68-10.31c0,0-0.01-0.01-0.01-0.01
		c-0.04-3.83-2-5.81-5.8-6.03c-0.26-0.1-0.4-0.29-0.41-0.57c-0.2-3.15-1.91-4.83-5-5.2c0,0,0.02,0.02,0.02,0.02
		c0.37-1.77,0.03-3.56-1.36-4.56c-9.98-7.2-15.04-19.17-25.36-26c-0.27-0.18-0.49-0.45-0.71-0.7c-9.33-11.13-19.24-21.73-29.8-31.68
		c-9.4-8.87-5.77-9.85-0.16-16.92c0.2-0.25,0.72-0.34,0.79-0.58c1.18-4.45,9.75-3.76,7.49-10.72c-0.15-0.46,1.27-1.41,1.92-2.16
		c1.19-1.38,2.38-2.75,3.51-4.18c7.48-9.48,14.86-19.03,22.49-28.39c1.26-1.55,1.42-2.83,1.13-4.49c0.99,0.19,2.17,0.47,2.78-0.47
		c6.88-10.55,15.43-19.81,23.18-29.68c7.8-9.96,14.79-20.57,23.69-29.68c3.04-3.12,5.08-7.12,6.33-11.4
		c-0.03-0.24,0.06-0.4,0.29-0.5c0.28-0.41,0.57-0.82,0.85-1.23c0.02-0.3,0.15-0.54,0.39-0.71c1.73-0.91,4.34-1.38,5.05-2.79
		c3.58-7.14,9.04-12.77,13.92-18.9c11.38-14.31,22.84-28.56,33.7-43.26c2.83-3.83,7.06-7.08,7.8-12.34c0,0,0,0.03,0,0.03
		c0.68-0.04,1.01-0.38,0.92-1.08l0.06,0.27c0,0-0.08-0.27-0.08-0.27c2.22-0.44,3.32-1.75,3.14-4.05c0.04-0.28,0.19-0.47,0.45-0.58
		c2.17-0.59,4.15-1.35,3.56-4.25c0,0-0.02,0.03-0.02,0.03c1.88-0.74,3.36-1.93,4.53-3.63c7.01-10.17,14.85-19.76,22.62-29.3
		c8.99-11.04,17.26-22.63,26.29-33.63c8.02-9.77,14.76-20.65,23.25-29.96c8.21-9,13.73-20.13,23.1-28.14
		c1.65-1.41,2.65-3.84,2.23-6.38c0.88-1.7,2.9-2.69,3.09-4.84c0.43-0.56,0.85-1.12,1.28-1.68c2.93-2,4.71-5.04,6.84-7.73
		c10.25-12.98,20.3-26.12,30.61-39.05c3.86-4.84,3.93-4.51,7.98-0.06c5.21,5.72,9.42,12.34,15.54,17.23c0,0,0.12,0.21,0.12,0.21
		c-0.26,1.17,0.56,1.81,1.21,2.56c20.4,23.74,40.69,47.57,61.25,71.16c4.27,4.9,7.78,10.56,13.15,14.48c0,0-0.01-0.01-0.01-0.01
		c0.46,3.04,3.09,4.21,5.08,5.93c0,0,0,0,0,0c0.95,2.96,3.36,4.57,5.7,6.25l0.22-0.14c0,0-0.19,0.18-0.19,0.18
		c1.98,4.68,5.88,7.91,9.06,11.63c4.81,5.61,8.74,12.07,14.98,16.38c0.06,0.27,0.21,0.47,0.45,0.61c0.03,1.89,1.55,2.82,2.6,4.05
		c3.54,4.12,7.01,8.31,10.66,12.33c7.97,8.76,14.51,18.8,23.61,26.56c0,0,0.05,0.05,0.05,0.05c6.98,9.52,14.61,18.49,22.94,26.85
		c0.39,0.38,0.78,0.76,1.16,1.14c0.61,2.56,2.38,4.13,4.58,5.33c0.27,0.32,0.55,0.65,0.82,0.97c0.53,1.01,0.89,2.17,1.61,3.01
		c5.26,6.12,10.62,12.14,15.88,18.26c4.07,4.73,7.32,10.2,12.61,13.81c0.09,0.27,0.27,0.46,0.52,0.59c-0.1,1.12,0.63,1.84,1.28,2.59
		c6.16,7.2,12.08,14.63,18.54,21.55c5.3,5.68,9.11,12.72,15.74,17.16c0.08,0.3,0.25,0.54,0.51,0.72c-0.12,0.59,0.15,0.85,0.72,0.83
		c0.37,0.38,0.74,0.76,1.11,1.14c4,6.51,8.91,12.25,14.68,17.27c0.09,0.29,0.26,0.53,0.51,0.7c3.8,5.72,8.19,10.92,13.43,15.39
		c0.08,0.26,0.24,0.47,0.47,0.63c1.1,3.66,3.94,5.8,6.85,7.88c0,0,0.07,0.11,0.07,0.11c-0.07,1.1,0.59,1.85,1.24,2.61
		c13.75,16.06,27.42,32.18,41.29,48.14c3.63,4.18,6.54,9.07,11.37,12.14c0,0,0.09,0.1,0.09,0.1c6.41,9.12,13.77,17.42,21.67,25.26
		c0.31,0.32,0.61,0.65,0.92,0.97c0.75,1.24,1.51,2.48,2.26,3.72c0.32,0.38,0.63,0.76,0.95,1.14l0,0c0.57,1.72,0.4,4.16,3.41,3.53
		c0,0,0.07,0.17,0.07,0.17c-0.58,1.65,0.12,2.25,1.72,2.1l-0.22,0.2c0,0,0.23-0.18,0.22-0.18c-0.23,1.5,0.41,2.19,1.92,2.07
		c0,0-0.03-0.04-0.03-0.04c0.22,0.45,0.45,0.9,0.67,1.35c0.37,2.49,1.78,4.08,4.16,4.84l0.02,0.01c0.04,0.86,0.23,1.6,1.3,1.67
		l-0.19,0.18l0.22-0.14c0.05,1.04,0.77,1.25,1.61,1.32c0,0,0.06,0.04,0.06,0.04c0.3,0.31,0.6,0.63,0.9,0.94
		c0.15,0.2,0.26,0.42,0.3,0.67c0.05,0.66,0.4,1.05,1.06,1.16C1309.61,623.05,1310.07,623.25,1310.54,623.44z"/>
	<path class="st1" d="M938.71,348.17c2.52,1.01,4.26,2.79,6.01,4.9c7.9,9.57,16.37,18.69,24.02,28.45
		c9.25,11.79,20.08,22.25,28.87,34.42c2.09,2.89,4.42,5.66,7.73,7.49c2.56,1.42,2.67,5.05,4.6,6.85
		c8.21,7.65,14.25,17.12,21.77,25.36c5.59,6.11,11.69,11.9,15.98,19.25c2.36,4.05,6.4,6.97,9.44,10.67
		c8.3,10.1,16.99,19.9,25.61,29.73c5.44,6.2,9.85,13.25,15.88,18.92c1.9,1.79,3.54,4.02,2.67,6.49c-1.03,2.92-4.1,2.24-6.55,2.24
		c-75.75,0.01-151.49,0.01-227.24,0.01c-1,0-2.02-0.13-2.99,0.03c-1.69,0.27-4.3-1.09-4.88,1.04c-0.54,1.99,2.35,2.37,3.64,3.53
		c4.31,3.87,8.49,7.97,13.22,11.27c4.71,3.27,8.53,7.55,13.19,10.84c1,0.71,2.58,1.77,2.17,3.64c-6.6-3.07-11.39-8.54-16.95-12.96
		c-7.47-5.94-14.5-12.46-21.72-18.72c0.14-0.46,0.28-0.91,0.42-1.37c6.24,0,12.49,0,18.73,0c73.46,0.02,146.91,0.04,220.37,0.06
		c1.17,0,2.33,0.02,3.5-0.05c0.95-0.06,2.14,0.23,2.61-0.93c0.47-1.13-0.51-1.82-1.13-2.54c-12.89-15.21-25.8-30.4-38.69-45.61
		c-12.9-15.22-25.77-30.46-38.68-45.67c-26.45-31.16-52.93-62.31-79.37-93.49C940.02,350.89,939.45,349.46,938.71,348.17z"/>
	<path class="st1" d="M968.92,638.07c5.56,1.26,11.22,0.93,16.85,0.93c109.6,0.01,219.2,0.01,328.8,0.01c1.48,0,2.96,0,4.64,0
		c-0.48-2.24-1.77-3.96-1.31-6.02c0.36-0.04,0.72-0.08,1.08-0.11c0.95,1.05,1.91,2.1,2.86,3.15c0.08,1.39,0.86,2.3,2.01,2.95
		c-0.06,0.57-0.13,1.13-0.19,1.7c-3.25,0.11-6.5,0.22-9.76,0.33c-1,0-1.99,0-2.99,0c-2.16-0.07-4.32-0.21-6.48-0.21
		c-49.29-0.01-98.57-0.03-147.86,0c-59.94,0.03-119.88,0.09-179.83,0.13C973.82,640.93,970.61,641.55,968.92,638.07z"/>
	<path class="st2" d="M919.16,917.82c2.67,0.47,4.35,2.17,5.74,4.37c0.39,0.62,1.36,1.31,1.99,1.25c1.29-0.12,1.11-1.41,1.14-2.37
		c0.04-1.16,0.02-2.33,0.02-3.49c0-59.41-0.04-118.83,0.07-178.24c0.01-5.18-1.58-8.07-6.39-10.91c-3.55-2.09-6.6-6.09-9.88-9.25
		c-5.27-5.08-11-9.56-16.88-13.86c-1.99-1.45-3.29-3.15-3.86-5.49c3.95,0.92,6.42,4.07,9.19,6.55c8.28,7.44,16.84,14.53,25.52,21.48
		c2.77,2.22,4.18,4.64,4.17,8.43c-0.1,62.56-0.05,125.11-0.06,187.67c0,1.43,0.63,3.41-0.94,4.09c-2.02,0.87-2.83-1.22-3.66-2.55
		C923.57,922.68,920.11,921.26,919.16,917.82z"/>
	<path class="st2" d="M779.22,604.82c-2.35,0.63-3.74-0.85-5.11-2.34c-1.92-2.09-3.89-4.21-6.45-5.43
		c-7.8-3.73-11.91-11.79-19.12-16.11c-4.17-2.5-7.02-6.41-10.8-9.32c-2.74-2.11-2.6-5.31-0.16-7.72c1.73-1.71,2.91-3.51,3.69-5.77
		c2.27-6.64,8.18-10.67,11.86-16.37c6.79-10.51,14.61-20.37,21.37-30.9c8.41-13.1,17.72-25.54,26.58-38.31
		c6.97-10.05,13.98-20.07,20.66-30.31c1.01-1.54,2.63-2.49,3.28-4.21c0.52,0,1.04-0.01,1.56-0.01c-3.98,7.66-9.38,14.4-14.22,21.49
		c-14.78,21.66-29.61,43.29-44.5,64.87c-9.05,13.12-18.06,26.28-27.51,39.1c-2.97,4.03-2.23,6.1,1.22,8.94
		c12.29,10.14,24.4,20.5,36.55,30.8C778.59,603.61,778.85,604.27,779.22,604.82z"/>
	<path class="st3" d="M636.84,508.77c0.28,1.66,0.13,2.95-1.13,4.5c-7.63,9.36-15.01,18.91-22.49,28.39
		c-1.13,1.43-2.32,2.8-3.51,4.18c-0.65,0.76-2.07,1.7-1.92,2.16c2.27,6.96-6.3,6.27-7.49,10.72c-0.06,0.24-0.59,0.33-0.79,0.58
		c-5.61,7.08-9.24,8.06,0.16,16.92c10.56,9.96,20.47,20.55,29.8,31.68c0.21,0.25,0.44,0.52,0.71,0.7c10.32,6.83,15.38,18.8,25.36,26
		c1.38,1,1.73,2.79,1.36,4.56c-9.81-8.28-17.87-18.29-26.78-27.45c-12.75-13.1-24.98-26.71-37.56-39.98
		c-2.14-2.25-2.4-3.81-0.43-6.32c14.57-18.55,29.01-37.21,43.51-55.81C635.93,509.24,636.43,509.04,636.84,508.77z"/>
	<path class="st4" d="M968.92,638.07c1.69,3.48,4.9,2.86,7.84,2.86c59.94-0.04,119.88-0.1,179.83-0.13
		c49.29-0.02,98.57-0.01,147.86,0c2.16,0,4.32,0.14,6.48,0.21c-1.68,1.65-3.79,0.91-5.71,0.91c-65.91,0.04-131.82-0.25-197.72,0.2
		c-20.36,0.14-40.74,0.73-61.11,0.76c-16.58,0.02-33.18,0.55-49.72-0.22c-8.24-0.38-16.48,1.5-24.69-0.47
		c-3.59-0.86-5.87-2.76-6.97-6.21c0.37-0.07,0.73-0.14,1.1-0.21c0.2,0.18,0.44,0.29,0.72,0.33c0.71,0.65,1.41,1.3,2.12,1.95
		L968.92,638.07z"/>
	<path class="st5" d="M864.86,216.87c0.43,2.54-0.57,4.96-2.23,6.38c-9.38,8.02-14.89,19.14-23.1,28.14
		c-8.49,9.31-15.22,20.19-23.25,29.96c-9.03,11-17.3,22.59-26.29,33.63c-7.77,9.54-15.61,19.12-22.62,29.3
		c-1.17,1.7-2.65,2.89-4.53,3.63c3.17-7.46,8.95-13.13,13.68-19.47c10.41-13.94,21.53-27.35,32.26-41.05
		c17.8-22.73,35.52-45.51,53.27-68.27c0.3-0.36,0.6-0.73,0.9-1.09c0,0,0.02-0.02,0.02-0.02
		C863.59,217.63,864.22,217.25,864.86,216.87z"/>
	<path class="st2" d="M812.89,805.06c1.82-0.14,3.29,0.73,4.41,1.94c10.05,10.86,20.65,21.27,30.27,32.46
		c7.82,9.1,16.39,17.55,24.6,26.13c6.92,7.23,12.89,15.6,21.23,21.78c6.19,4.58,9.72,12.29,15.37,17.84
		c0.33,0.32,0.03,1.27,0.02,1.93c-8.39-6.85-15.12-15.32-22.56-23.09c-17.19-17.95-34.28-36.01-51.11-54.3
		C827.64,821.59,819.2,814.27,812.89,805.06z"/>
	<path class="st4" d="M1005.92,269.14c-5.37-3.92-8.87-9.58-13.15-14.48c-20.56-23.59-40.86-47.42-61.25-71.16
		c-0.64-0.75-1.46-1.39-1.21-2.56c5.83,3.07,9.06,8.71,13.21,13.42c7.77,8.81,15.59,17.56,23,26.69
		c10.42,12.83,22.16,24.55,32.02,37.88C1001.04,262.31,1005.43,264.31,1005.92,269.14z"/>
	<path class="st1" d="M877.15,364.19c0.84-4.7,4.31-8.02,6.46-12.02c6.3-11.75,15.89-21.26,22.8-32.64
		c3.35-5.52,5.13-5.33,9.34-0.31c6.37,7.6,12.9,15.05,19.39,22.54c1.42,1.64,2.93,3.2,2.67,5.62c-4.97-3.92-8.54-9.17-12.83-13.73
		c-3.84-4.09-7.26-8.59-10.63-13.1c-2.66-3.56-4.36-2.86-6.61,0.47c-9.08,13.43-18.35,26.73-27.56,40.08
		C879.37,362.3,878.79,363.77,877.15,364.19z"/>
	<path class="st5" d="M754.8,357.8c-0.74,5.26-4.96,8.5-7.8,12.34c-10.86,14.7-22.32,28.95-33.7,43.26
		c-4.88,6.13-10.34,11.76-13.92,18.9c-0.71,1.42-3.32,1.89-5.05,2.79c2.55-6.08,7.54-10.36,11.45-15.42
		c15.7-20.33,31.58-40.52,47.42-60.74C753.6,358.45,754.27,358.18,754.8,357.8z"/>
	<path class="st3" d="M692.81,437.54c-1.25,4.28-3.28,8.28-6.33,11.4c-8.9,9.11-15.88,19.72-23.69,29.68
		c-7.74,9.88-16.29,19.13-23.18,29.68c-0.61,0.94-1.79,0.66-2.79,0.47c6.12-8.2,12.12-16.49,18.38-24.58
		c10.73-13.86,21.6-27.61,32.46-41.36C689.19,440.9,690.53,438.75,692.81,437.54z"/>
	<path class="st2" d="M891.15,699.84c-0.66-0.01-1.6,0.26-1.93-0.07c-5.55-5.5-12.39-9.4-17.99-14.88
		c-4.41-4.32-9.51-7.92-14.21-11.96c-11.03-9.47-22.01-19-32.98-28.52c-0.99-0.86-2.03-1.77-2.1-3.25
		c8.7,5.78,16.27,12.96,24.19,19.69c14.29,12.14,28.59,24.26,42.92,36.36C889.94,697.96,890.92,698.58,891.15,699.84z"/>
	<path class="st4" d="M930.19,180.74c-6.13-4.88-10.33-11.51-15.54-17.23c-4.05-4.45-4.12-4.78-7.98,0.06
		c-10.31,12.93-20.37,26.07-30.61,39.05c-2.13,2.69-3.91,5.73-6.84,7.73c1.76-6.51,7.2-10.49,10.91-15.63
		c7.72-10.7,15.97-21.02,23.86-31.6c1.42-1.9,4.04-2.69,4.4-5.73c0.23-1.92,1.78-0.32,2.6,0.22c5.08,3.32,8.71,8.18,11.97,13.03
		C925.28,174.08,930.27,175.65,930.19,180.74z"/>
	<path class="st4" d="M1266.04,571.78c-4.82-3.07-7.74-7.97-11.37-12.14c-13.87-15.95-27.54-32.08-41.29-48.14
		c-0.65-0.76-1.31-1.51-1.24-2.61c6.55,3.91,10.56,10.39,15.44,15.88c12.39,13.94,23.5,29,36.93,42.03
		C1266.14,568.38,1265.77,570.06,1266.04,571.78z"/>
	<path class="st4" d="M1078.07,352.9c-9.1-7.76-15.64-17.79-23.61-26.56c-3.65-4.02-7.12-8.2-10.66-12.33
		c-1.05-1.23-2.57-2.16-2.6-4.05c6.13,3.34,9.77,9.21,14.16,14.26c5.38,6.18,10.91,12.25,16.19,18.49
		C1074.08,345.69,1077.49,348.52,1078.07,352.9z"/>
	<path class="st4" d="M1173.8,464.23c-6.63-4.44-10.45-11.48-15.74-17.16c-6.46-6.92-12.38-14.35-18.54-21.55
		c-0.65-0.76-1.38-1.47-1.28-2.59c3.6,1.33,5.78,4.43,8,7.15c6.99,8.54,14.04,16.95,21.96,24.69
		C1170.56,457.05,1172.98,460.46,1173.8,464.23z"/>
	<path class="st4" d="M1137.73,422.33c-5.29-3.61-8.54-9.08-12.61-13.81c-5.26-6.12-10.63-12.14-15.88-18.26
		c-0.73-0.84-1.09-2-1.61-3.01c6.26,2.94,9.33,9.09,13.73,13.87c5.45,5.91,10.39,12.31,15.56,18.48
		C1137.58,420.4,1137.99,421.26,1137.73,422.33z"/>
	<path class="st4" d="M1040.75,309.36c-6.24-4.31-10.17-10.77-14.98-16.38c-3.19-3.72-7.08-6.95-9.06-11.63
		c2.48,1.81,5.8,1.96,7.15,6.04c0.75,2.26,3.19,5.01,5.51,7.2C1033.89,298.84,1038.36,303.37,1040.75,309.36z"/>
	<path class="st4" d="M1101.06,379.8c-8.34-8.36-15.96-17.33-22.94-26.85c4.62,3.57,9.71,6.48,12.57,12.08
		c1.69,3.31,4.54,6.06,7.03,8.91C1099.25,375.7,1101.01,377.24,1101.06,379.8z"/>
	<path class="st2" d="M821.85,641.08c-5.65-0.53-8.49-5.37-12.1-8.59c-4.59-4.1-10.54-6.93-13.48-12.79
		c6.96,3.6,12.3,9.34,18.38,14.1C817.3,635.86,820.2,637.92,821.85,641.08z"/>
	<path class="st4" d="M1287.81,597.14c-7.9-7.84-15.26-16.14-21.67-25.26C1275.29,578.65,1282.66,586.94,1287.81,597.14z"/>
	<path class="st1" d="M892.67,574.19c0.81,0.04,1.88-0.25,2.38,0.16c5.89,4.87,11.71,9.84,17.52,14.8c0.9,0.77,1.52,1.74,1.26,3.04
		C905.94,587.17,899.25,580.74,892.67,574.19z"/>
	<path class="st4" d="M1190.82,484.18c-5.76-5.02-10.67-10.76-14.68-17.27C1183.33,470.72,1187.3,477.27,1190.82,484.18z"/>
	<path class="st2" d="M774.29,763.84c6.03,4.3,12.1,8.56,14.88,15.91C783.66,774.96,778.19,770.13,774.29,763.84z"/>
	<path class="st2" d="M797.02,787.96c6.63,3.82,10.82,9.91,14.96,16.05C806.04,799.54,801.04,794.2,797.02,787.96z"/>
	<path class="st4" d="M1204.76,500.27c-5.23-4.47-9.63-9.67-13.43-15.39C1197.72,488.35,1201.4,494.17,1204.76,500.27z"/>
	<path class="st3" d="M684.04,667.99c4.42-1.04,5.38,3.01,7.49,5.24c1.34,1.41,2.29,3.18,3.41,4.78c-0.46,0.06-0.92,0.12-1.38,0.18
		C690.02,675.13,686.25,672.29,684.04,667.99z"/>
	<path class="st1" d="M936.91,611.03c6.49,1.8,10.49,6.64,14.3,11.71l-0.29,0.3c-0.96-0.38-1.91-0.77-2.87-1.15
		c-0.73-0.61-1.45-1.21-2.18-1.82c-1.12-1.96-2.46-3.67-4.86-4.12c-0.32-0.34-0.63-0.68-0.95-1.02
		C939.02,613.63,937.96,612.33,936.91,611.03z"/>
	<path class="st2" d="M744.94,728.96c-0.51,3.61,5.28,4.13,3.99,8.13c-3.73-2.28-6.6-5.35-8.67-9.2c1.27,0.07,2.53,0.14,3.8,0.21
		C744.35,728.39,744.64,728.67,744.94,728.96z"/>
	<path class="st2" d="M842.97,412.92c2.69-4.55,5.07-9.31,9.24-12.79c-1.58,5.72-5.65,9.84-9.2,14.29
		C842.99,413.92,842.98,413.42,842.97,412.92z"/>
	<path class="st1" d="M918.84,596.17c5.58,0.85,9.06,4.56,12.12,8.86c-0.2,0.2-0.39,0.41-0.59,0.61c-1.12-0.55-2.24-1.11-3.36-1.66
		c-0.18-0.16-0.39-0.28-0.63-0.34c-0.87-1.89-2.2-3.26-4.28-3.77C921.02,598.63,919.93,597.4,918.84,596.17z"/>
	<path class="st3" d="M668.1,650.96c4.8,1.95,7.96,5.46,9.68,10.3C673.94,658.4,670.45,655.21,668.1,650.96z"/>
	<path class="st2" d="M869,374.16c1.22-3.33,3.98-5.25,6.63-7.28c-1.47,4.17-4.12,7.49-7.38,10.39c0,0-0.3-0.29-0.3-0.29
		c0.01-0.34,0.01-0.68,0.02-1.02c0.05-0.32,0.11-0.63,0.17-0.95C868.43,374.73,868.72,374.45,869,374.16z"/>
	<path class="st2" d="M796.28,619.7c-2.69,0.55-4.72,0.53-5.33-3.11c-0.31-1.85-3.28-2.57-3.69-4.87
		C791.14,613.38,793.97,616.24,796.28,619.7z"/>
	<path class="st1" d="M966.09,635.77c-0.37,0.07-0.73,0.14-1.1,0.21c-0.71-0.64-1.42-1.27-2.13-1.91c-0.28-0.89-0.95-1.18-1.8-1.18
		c0,0,0.01,0.01,0.01,0.01c-0.35-0.31-0.7-0.63-1.05-0.94c0,0,0,0,0,0c-0.34-0.33-0.68-0.66-1.02-0.99
		c-0.35-0.31-0.71-0.63-1.06-0.94c-0.72-0.93-1.44-1.85-2.16-2.78c0.12-0.14,0.24-0.28,0.37-0.42
		C960.53,628.63,964.17,631.24,966.09,635.77z"/>
	<path class="st3" d="M677.78,661.26c3.85,0.61,6.71,2.14,6.27,6.74C680.95,666.69,679.3,664.04,677.78,661.26z"/>
	<path class="st4" d="M1212.08,508.78c-2.91-2.08-5.76-4.22-6.85-7.88C1208.21,502.92,1212.58,503.74,1212.08,508.78z"/>
	<path class="st2" d="M856.22,394.35c1.21-4.35,4.14-7.49,7.35-10.43C862.47,388.34,859.76,391.64,856.22,394.35z"/>
	<path class="st2" d="M764.92,754.03c0.37-0.04,0.75-0.09,1.12-0.13c0.34,0.35,0.68,0.7,1.02,1.04c1.81,2.15,5.58,2.8,5.14,6.69
		C769.2,759.64,766.38,757.49,764.92,754.03z"/>
	<path class="st2" d="M787.29,611.72c-3.66-1.17-7.08-2.63-8.08-6.91C782.17,606.79,785.35,608.53,787.29,611.72z"/>
	<path class="st2" d="M789.25,779.83c3.2,1.47,5.75,3.56,6.8,7.1C792.97,785.34,790.55,783.12,789.25,779.83z"/>
	<path class="st2" d="M721.48,707.84c3.37,0.21,3.79,4.18,6.57,5.14c0.05,0.61,0.1,1.23,0.15,1.84l-0.22,0.22
		C725.07,713.31,722.78,711.02,721.48,707.84z"/>
	<path class="st2" d="M748.92,737.08c3.94,0.11,6.03,2.01,5.88,6.08C752.36,741.6,750.05,739.9,748.92,737.08z"/>
	<path class="st2" d="M758.2,746.87c2.91,1.32,5.85,2.62,6.04,6.48C761.39,751.96,759.32,749.85,758.2,746.87z"/>
	<path class="st2" d="M908.81,907.12c4.02,0.04,5.25,2.76,5.86,6.08C912.13,911.74,910.3,909.59,908.81,907.12z"/>
	<path class="st3" d="M662.29,644.92c3.8,0.21,5.76,2.19,5.8,6.03C665.59,649.48,663.85,647.29,662.29,644.92z"/>
	<path class="st4" d="M936.91,611.03c1.06,1.3,2.11,2.6,3.17,3.9c-3.81,0.51-5.57-1.46-6.04-4.99c0.63,0.06,1.27,0.12,1.9,0.18
		C936.26,610.43,936.58,610.73,936.91,611.03z"/>
	<path class="st2" d="M835.12,425.14c-0.02-3.08,1.21-5.31,4.29-6.27C838.78,421.5,837.73,423.85,835.12,425.14z"/>
	<path class="st2" d="M828.15,435.16c-0.66-3.43,3.45-4.29,3.87-7.13c0.4,0.01,0.8,0.01,1.19,0.02
		C832.41,431.04,831.21,433.76,828.15,435.16z"/>
	<path class="st4" d="M1016.69,281.32c-2.34-1.68-4.76-3.3-5.7-6.25C1014.07,276.07,1016.37,277.79,1016.69,281.32z"/>
	<path class="st4" d="M1313.91,641.01c3.25-0.11,6.51-0.22,9.76-0.33C1320.54,644.62,1317.22,642.69,1313.91,641.01z"/>
	<path class="st4" d="M864.86,216.87c-0.63,0.38-1.26,0.76-1.89,1.13c0.19-3.22,1.99-5.09,4.98-5.97
		C867.75,214.18,865.74,215.16,864.86,216.87z"/>
	<path class="st4" d="M1010.99,275.06c-1.99-1.72-4.62-2.89-5.08-5.93C1009.06,269.86,1010.98,271.64,1010.99,275.06z"/>
	<path class="st3" d="M656.88,639.14c3.09,0.37,4.81,2.05,5,5.2C659.63,643.17,657.92,641.48,656.88,639.14z"/>
	<path class="st1" d="M935.93,610.12c-0.63-0.06-1.27-0.12-1.9-0.18c-0.72-0.62-1.44-1.25-2.16-1.87c-0.5-0.81-1-1.62-1.5-2.43
		c0.2-0.2,0.39-0.41,0.59-0.61C933.18,606.18,935.83,606.91,935.93,610.12z"/>
	<path class="st4" d="M1106.8,386.27c-2.19-1.21-3.96-2.77-4.58-5.33C1104.7,381.9,1106.67,383.3,1106.8,386.27z"/>
	<path class="st4" d="M930.37,605.64c0.5,0.81,1,1.62,1.5,2.43c-2.55-0.26-4.98-0.67-4.87-4.09
		C928.13,604.53,929.25,605.09,930.37,605.64z"/>
	<path class="st2" d="M852.18,400.2c0.21-2.47,1.36-4.27,3.71-5.21C855.84,397.56,854.56,399.27,852.18,400.2z"/>
	<path class="st4" d="M1304.07,615.91c2.99-0.42,4.06,1.16,4.03,3.88c0,0-0.33,0.34-0.33,0.34c-0.3-0.08-0.59-0.1-0.9-0.04
		c0,0-0.06-0.04-0.05-0.04c-0.28-0.76-0.81-1.21-1.61-1.32l-0.22,0.14c0,0,0.19-0.18,0.19-0.18c-0.09-0.82-0.47-1.42-1.29-1.67
		c0,0-0.02-0.01-0.02-0.01C1303.94,616.64,1304.01,616.28,1304.07,615.91z"/>
	<path class="st4" d="M1290.99,601.83c-0.75-1.24-1.5-2.48-2.26-3.72c2.57,0.59,4.12,2.07,4.22,4.82c-0.34,0.01-0.68,0.03-1.02,0.04
		c0,0,0,0,0,0C1291.62,602.59,1291.3,602.21,1290.99,601.83z"/>
	<path class="st1" d="M913.82,592.18c2.75-0.01,4.04,1.83,5.06,4.01C916.48,595.75,914.91,594.27,913.82,592.18z"/>
	<path class="st1" d="M951.21,622.74c2.52,0.31,4.27,1.54,4.93,4.09c-0.12,0.14-0.25,0.27-0.37,0.41c-0.58-0.11-1.16-0.22-1.74-0.33
		c-1.03-0.97-2.05-1.94-3.08-2.91c0.05-0.32,0.04-0.64-0.04-0.96L951.21,622.74z"/>
	<path class="st2" d="M732.97,720.01c2.75,0.19,3.9,1.93,4.25,4.42C735.07,723.65,733.59,722.24,732.97,720.01z"/>
	<path class="st2" d="M729.93,715c1.15,1.1,2.63,2.02,2.11,4c-2.15-0.5-3.37-1.97-4.06-3.96c0,0,0.22-0.22,0.22-0.22
		C728.77,714.88,729.35,714.94,729.93,715z"/>
	<path class="st2" d="M703.94,686.97c0.51,1,1.3,1.91,1.04,3.16c-2.08-0.84-3.71-2.13-4.37-4.37c0,0,0.35-0.03,0.35-0.03
		C701.95,686.14,702.95,686.55,703.94,686.97z"/>
	<path class="st4" d="M941.02,615.95c2.4,0.45,3.73,2.16,4.86,4.12C943.18,619.98,941.42,618.76,941.02,615.95z"/>
	<path class="st2" d="M717.06,702.96c2.41,0.34,3.82,1.62,3.92,4.14C718.97,706.39,717.54,705.12,717.06,702.96z"/>
	<path class="st5" d="M762.86,347.87c0.58,2.9-1.39,3.66-3.56,4.25C759.6,349.97,761.02,348.74,762.86,347.87z"/>
	<path class="st2" d="M711.17,695.84c1.4,1.04,2.84,2.05,2.95,4.03c-2.16-0.45-3.24-1.99-3.95-3.91
		C710.51,695.91,710.84,695.88,711.17,695.84z"/>
	<path class="st1" d="M1304.07,615.91c-0.07,0.37-0.13,0.73-0.2,1.1c-2.38-0.76-3.79-2.36-4.16-4.84l0.23-0.2l0.46,0.09l0.47,0
		c0,0-0.01-0.01-0.01-0.01c0.32,0.36,0.64,0.72,0.97,1.08C1302.57,614.05,1303.32,614.98,1304.07,615.91z"/>
	<path class="st4" d="M922.1,599.86c2.08,0.52,3.41,1.89,4.28,3.77C923.56,603.96,922.38,602.42,922.1,599.86z"/>
	<path class="st5" d="M758.85,352.7c0.18,2.3-0.92,3.61-3.14,4.05C756.04,354.85,757.14,353.54,758.85,352.7z"/>
	<path class="st4" d="M954.04,626.91c0.58,0.11,1.16,0.22,1.74,0.33c0.72,0.93,1.44,1.85,2.16,2.78
		C955.83,630,954.13,629.47,954.04,626.91z"/>
	<path class="st4" d="M1308.08,621.7c-0.05-0.25-0.15-0.47-0.3-0.67c0.08-0.3,0.07-0.6-0.01-0.9c0,0,0.33-0.34,0.33-0.34
		c1.75,0.59,3.07,1.47,2.44,3.65c-0.47-0.19-0.93-0.39-1.4-0.58C1308.79,622.47,1308.44,622.08,1308.08,621.7z"/>
	<path class="st1" d="M1291.94,602.97c0.34-0.01,0.68-0.03,1.02-0.04c0,0,0.02,0.02,0.02,0.02c0.28,1.03,0.96,1.67,1.93,2.04
		c0.15,0.5,0.29,1.01,0.44,1.51C1292.33,607.13,1292.5,604.69,1291.94,602.97z"/>
	<path class="st4" d="M1323.85,638.98c-1.16-0.65-1.94-1.56-2.01-2.95C1323.66,636.23,1324.77,636.91,1323.85,638.98z"/>
	<path class="st4" d="M1318.98,632.88c-0.36,0.04-0.72,0.08-1.08,0.11c0,0,0,0,0,0c-0.25-1.05-0.92-1.72-1.91-2.09
		c0,0,0.02,0.01,0.02,0.01c0.06-0.34,0.12-0.69,0.18-1.03C1318.24,629.83,1319.1,630.9,1318.98,632.88z"/>
	<path class="st1" d="M833.21,428.04c-0.4-0.01-0.8-0.01-1.19-0.02c-0.1-2.18,0.8-3.3,3.1-2.92
		C834.49,426.09,833.85,427.06,833.21,428.04z"/>
	<path class="st2" d="M705.78,691.06c1.49,0.24,2.23,1.18,2.41,2.62C706.51,693.62,706.03,692.44,705.78,691.06z"/>
	<path class="st4" d="M950.92,623.05c0.08,0.32,0.09,0.64,0.04,0.96c-1.46-0.03-2.92-0.06-2.9-2.11
		C949.01,622.28,949.97,622.66,950.92,623.05z"/>
	<path class="st2" d="M693.56,678.19c0.46-0.06,0.92-0.12,1.38-0.18c0.39,0.96,0.78,1.92,1.17,2.88
		C694.59,680.63,694.04,679.44,693.56,678.19z"/>
	<path class="st4" d="M1294.9,604.99c-0.97-0.38-1.65-1.01-1.93-2.04C1294.01,603.25,1296.25,602.43,1294.9,604.99z"/>
	<path class="st2" d="M840.03,418.03c-1.01-1.91,0.2-2.11,1.64-2.11C841.81,417.16,841.27,417.87,840.03,418.03z"/>
	<path class="st2" d="M914.71,913.26c2.13-0.49,2.32,0.91,2.38,2.43C915.74,915.43,915.19,914.37,914.71,913.26z"/>
	<path class="st2" d="M714.16,699.9c1.32,0.05,1.96,0.72,1.92,2.04C714.96,701.71,714.27,701.08,714.16,699.9z"/>
	<path class="st1" d="M1316.18,629.87c-0.06,0.34-0.12,0.69-0.18,1.03c-1.51-0.06-2.2-0.72-1.69-2.28
		C1314.94,629.04,1315.56,629.46,1316.18,629.87z"/>
	<path class="st1" d="M842.97,412.92c0.01,0.5,0.02,1,0.04,1.5c-0.27,0.22-0.54,0.44-0.81,0.67
		C840.44,413.65,841.75,413.3,842.97,412.92z"/>
	<path class="st2" d="M865.09,382.13c-0.17-1.18,0.27-1.95,1.49-2.19C866.75,381.13,866.27,381.87,865.09,382.13z"/>
	<path class="st2" d="M756.34,744.87c1.19,0.09,1.76,0.76,1.8,1.93C756.91,746.74,756.27,746.14,756.34,744.87z"/>
	<path class="st1" d="M826.58,438.01c-0.52,0-1.04,0.01-1.56,0.01c0.19-1.43,0.87-2.13,2.38-1.6
		C827.13,436.95,826.86,437.48,826.58,438.01z"/>
	<path class="st1" d="M1312.68,627.19c-1.1-0.33-1.8-0.98-1.77-2.21c0.35-0.03,0.7-0.06,1.05-0.08c0.34,0.35,0.68,0.7,1.02,1.05
		c-0.01,0.33-0.02,0.67-0.03,1L1312.68,627.19z"/>
	<path class="st1" d="M1299.07,610.85c-1.52,0.12-2.16-0.57-1.92-2.07C1298.22,609.06,1298.8,609.8,1299.07,610.85z"/>
	<path class="st1" d="M1297.13,608.76c-1.61,0.15-2.3-0.45-1.72-2.1C1296.31,607.1,1296.9,607.78,1297.13,608.76z"/>
	<path class="st2" d="M875.78,366.54c0.06-0.51,0.13-1.01,0.19-1.52c0.23,0,0.47,0,0.7,0C876.6,365.66,876.63,366.36,875.78,366.54z
		"/>
	<path class="st4" d="M961.07,632.89c0.85,0.01,1.52,0.3,1.8,1.18C962.04,634.03,961.34,633.78,961.07,632.89z"/>
	<path class="st1" d="M1314.31,628.64c-1.07,0.1-1.34-0.69-1.63-1.45c0,0,0.27-0.24,0.27-0.24c0.3,0.07,0.61,0.1,0.93,0.1
		C1314.02,627.58,1314.16,628.11,1314.31,628.64z"/>
	<path class="st2" d="M917.59,916.13c1.07,0.03,1.41,0.72,1.51,1.64C918.17,917.61,917.77,916.98,917.59,916.13z"/>
	<path class="st3" d="M711.17,695.84c-0.33,0.04-0.67,0.07-1,0.11c-0.33-0.18-0.48-0.45-0.46-0.83
		C710.2,695.36,710.69,695.6,711.17,695.84z"/>
	<path class="st1" d="M876.67,365.02c-0.23,0-0.46,0-0.7,0c0.4-0.29,0.8-0.58,1.2-0.87C877.01,364.45,876.84,364.74,876.67,365.02z"
		/>
	<path class="st4" d="M862.95,218.03c-0.3,0.36-0.6,0.73-0.9,1.09C862.35,218.75,862.65,218.39,862.95,218.03z"/>
	<path class="st4" d="M960.03,631.96c0.35,0.31,0.7,0.63,1.05,0.94C960.73,632.58,960.38,632.27,960.03,631.96z"/>
	<path class="st4" d="M959,630.97c0.34,0.33,0.68,0.66,1.02,0.99C959.68,631.62,959.34,631.29,959,630.97z"/>
	<path class="st4" d="M1313.87,627.05c-0.31,0-0.62-0.03-0.93-0.1c0.01-0.33,0.02-0.67,0.03-1
		C1313.28,626.31,1313.58,626.68,1313.87,627.05z"/>
	<path class="st4" d="M1311.96,624.89c-0.35,0.03-0.7,0.06-1.05,0.08c0.01-0.33,0.01-0.67,0.02-1
		C1311.27,624.28,1311.62,624.59,1311.96,624.89z"/>
	<path class="st2" d="M754.82,743.16c0.7,0.04,1.04,0.42,1.06,1.11C755.52,743.9,755.17,743.53,754.82,743.16z"/>
	<path class="st4" d="M1175.04,465.78c-0.58,0.02-0.84-0.24-0.72-0.83C1174.56,465.22,1174.8,465.5,1175.04,465.78z"/>
	<path class="st2" d="M696.14,680.92c0.32-0.05,0.63-0.04,0.95,0.01c0,0.31,0.03,0.61,0.1,0.91c0,0-0.2,0.21-0.2,0.21
		C696.7,681.67,696.42,681.3,696.14,680.92z"/>
	<path class="st1" d="M1299.71,612.16c-0.22-0.45-0.45-0.9-0.67-1.35c0.32-0.07,0.62-0.02,0.9,0.17c-0.05,0.33-0.05,0.66,0,0.99
		L1299.71,612.16z"/>
	<path class="st5" d="M693.95,435.81c-0.28,0.41-0.57,0.82-0.85,1.23C693.38,436.63,693.66,436.22,693.95,435.81z"/>
	<path class="st2" d="M827.44,436.33c-0.19-0.67,0.1-1.05,0.73-1.22C827.93,435.52,827.68,435.92,827.44,436.33z"/>
	<path class="st2" d="M796.05,786.93c0.32,0.34,0.65,0.69,0.97,1.03C796.39,787.91,796.07,787.57,796.05,786.93z"/>
	<path class="st2" d="M698.13,681.97c-0.03,0.34-0.06,0.68-0.09,1.03c-0.35-0.32-0.7-0.63-1.05-0.95c0,0,0.2-0.2,0.2-0.2
		C697.5,681.92,697.81,681.96,698.13,681.97z"/>
	<path class="st2" d="M811.96,803.99c0.32,0.36,0.65,0.73,0.97,1.09C812.61,804.71,812.29,804.35,811.96,803.99z"/>
	<path class="st5" d="M755.73,356.75c0.08,0.69-0.24,1.04-0.92,1.08C755.11,357.47,755.42,357.11,755.73,356.75z"/>
	<path class="st4" d="M1299.94,611.96c-0.06-0.33-0.06-0.66,0-0.99c0.31,0.36,0.62,0.72,0.93,1.08c0,0-0.47,0-0.47,0L1299.94,611.96
		z"/>
	<path class="st4" d="M1301.82,613.11c-0.32-0.36-0.64-0.72-0.97-1.08C1301.18,612.4,1301.5,612.75,1301.82,613.11z"/>
	<path class="st2" d="M867.39,378.5c-0.13-0.49-0.25-0.97-0.38-1.46c0.32,0,0.63-0.02,0.94-0.06c0,0,0.3,0.29,0.3,0.29
		C867.97,377.68,867.68,378.09,867.39,378.5z"/>
	<path class="st3" d="M703.94,686.97c-0.99-0.41-1.99-0.83-2.98-1.24c1.05-0.65,2.14-1.86,3.34-1.2
		C705.44,685.16,704.19,686.14,703.94,686.97z"/>
	<path class="st3" d="M729.93,715c-0.58-0.06-1.16-0.12-1.74-0.18c-0.05-0.62-0.1-1.23-0.15-1.84
		C729.35,713.02,730.02,713.65,729.93,715z"/>
	<path class="st1" d="M968.93,638.05c-0.71-0.65-1.41-1.3-2.12-1.95C968.25,635.95,968.99,636.56,968.93,638.05z"/>
	<path class="st1" d="M1315.99,630.9c0.99,0.37,1.66,1.04,1.91,2.09C1316.58,632.92,1315.92,632.25,1315.99,630.9z"/>
	<path class="st3" d="M698.13,681.97c-0.32-0.01-0.64-0.06-0.95-0.13c-0.07-0.3-0.1-0.61-0.1-0.92
		C697.51,681.21,698.88,680.53,698.13,681.97z"/>
	<path class="st3" d="M767.06,754.95c-0.34-0.35-0.68-0.7-1.02-1.04C767.48,753.18,766.8,754.52,767.06,754.95z"/>
	<path class="st1" d="M1303.89,617.02c0.83,0.25,1.2,0.85,1.29,1.67C1304.12,618.62,1303.92,617.89,1303.89,617.02z"/>
	<path class="st1" d="M1305.21,618.72c0.8,0.11,1.33,0.57,1.61,1.32C1305.98,619.98,1305.26,619.76,1305.21,618.72z"/>
	<path class="st1" d="M867.96,376.98c-0.31,0.04-0.63,0.06-0.94,0.06c0.32-0.36,0.64-0.72,0.96-1.08
		C867.97,376.3,867.96,376.64,867.96,376.98z"/>
	<path class="st1" d="M869,374.16c-0.28,0.28-0.57,0.57-0.85,0.85C868.44,374.73,868.72,374.44,869,374.16z"/>
	<path class="st1" d="M1308.08,621.7c0.35,0.39,0.7,0.77,1.06,1.16C1308.49,622.75,1308.13,622.36,1308.08,621.7z"/>
	<path class="st3" d="M744.94,728.96c-0.3-0.29-0.59-0.58-0.89-0.86C744.35,728.39,744.65,728.67,744.94,728.96z"/>
	<path class="st1" d="M1307.77,620.12c0.08,0.3,0.09,0.6,0.01,0.9c-0.3-0.31-0.6-0.63-0.9-0.94
		C1307.18,620.03,1307.48,620.04,1307.77,620.12z"/>
	<path class="st1" d="M1290.99,601.83c0.32,0.38,0.63,0.76,0.95,1.14C1291.62,602.59,1291.3,602.21,1290.99,601.83z"/>
</g>
</svg>
