<?xml version="1.0" encoding="utf-8"?>
<!-- Generator: Adobe Illustrator 24.3.0, SVG Export Plug-In . SVG Version: 6.00 Build 0)  -->
<svg version="1.1" id="Layer_1" xmlns="http://www.w3.org/2000/svg" xmlns:xlink="http://www.w3.org/1999/xlink" x="0px" y="0px"
	 viewBox="0 0 1920 1080" style="enable-background:new 0 0 1920 1080;" xml:space="preserve">
<style type="text/css">
	.st0{fill:#FBBC09;}
	.st1{fill:#777777;}
	.st2{fill:#787878;}
	.st3{fill:#7A7A7A;}
	.st4{fill:#767676;}
	.st5{fill:#FBFBFB;}
	.st6{fill:#FCFCFC;}
</style>
<g>
	<path class="st0" d="M264,636.6c-8.5-5.8-14.8-13.3-21.9-19.9c-44.3-40.5-88.4-81.2-132.5-122c-4.9-4.5-9.1-9.5-14.9-13.3
		c-3.2-2-3-4.8-0.2-7.9c12.5-13.7,24.7-27.7,37-41.5c17.5-19.8,35-39.5,52.6-59.2c15.5-17.2,31.2-34.3,46.8-51.5
		c6.2-6.8,12.6-13.6,18.5-20.7c4.1-5,7-6.5,12.5-0.8c27.9,28.6,56.3,56.9,84.5,85.3c22.1,22.3,44.2,44.7,66.2,67.1
		c16.7,17,33.3,34.1,50,51.1c1.7,1.7,3.5,3.2,4.2,5.5c-2.7,1.6-5.7,1.1-8.5,1.1c-53.8,0-107.6-0.1-161.5,0.1
		c-7.5,0-13.2-1.7-18.8-6.1c-14.5-11.3-29.5-22-44.4-32.9c-1.9-1.5-5.4-2.6-4.5-5c0.8-2.6,4.5-1.6,7-1.6c35.1-0.1,70.2,0.1,105.3,0
		c2.8,0,6.6,1.5,8-1.2c1.2-2.4-2-4.6-3.8-6.3c-16.3-16.9-32.9-33.7-49.3-50.5c-11.7-12-23.6-23.9-35-36.1c-3.7-4-5.4-4.6-9.2,0.2
		c-26.6,33.8-53.6,67.4-80.6,101c-3.1,3.9-3.1,6.4,1.2,9.6c26.1,18.9,51.8,38,78,56.8c9.7,7,16.5,13.7,15.6,26.1
		c-1.6,21.7-0.5,43.6-0.5,65.4C265.8,631.8,266.2,634.2,264,636.6z"/>
	<path class="st1" d="M1107.4,429.1c11.2-14.3,26.9-22,47-21.7c20.4,0.2,35,8.6,43.1,25c4.1-0.2,4.5-3.3,5.9-5.1
		c16.4-20.9,48.6-23.7,69.9-15.9c13.8,5,20.7,15.2,24.6,27.2c2.3,7.1,3.2,14.5,3.3,21.8c0.2,26.2-0.1,52.3,0.2,78.5
		c0.1,5.4-1.9,6.8-8,6.8c-17.9,0.1-17.9,0.3-17.9-15.4c0-21.1,0.1-42.2-0.1-63.3c-0.1-5.8-0.7-11.7-1.9-17.4
		c-2.5-13-11.1-21-24.2-23c-15-2.4-29,2.9-36.9,14.1c-5.8,8.4-9.2,17.5-9.1,27.4c0.1,23.3-0.2,46.7,0.2,70.1c0.1,5.4-1,7.6-8.1,7.5
		c-17.8-0.2-17.8,0.1-17.8-15.6c0-21.3,0-42.7,0-64c0-6.3-0.4-12.7-2.4-18.9c-3.6-10.8-11-18.5-24.3-20.6
		c-14-2.2-25.9,1.1-34.8,11.4c-7.9,9.2-10.5,19.7-10.6,30.8c-0.2,23.1-0.4,46.2,0.1,69.3c0.1,6.3-2.2,7.6-8.9,7.5
		c-16.3-0.2-16.3,0-16.3-13.8c0-37.8,0.2-75.7-0.2-113.5c-0.1-6,1.8-7.8,8.7-7.6c16.3,0.3,16.2-0.1,16.6,13.8
		C1105.8,425.7,1104.7,427.4,1107.4,429.1z"/>
	<path class="st1" d="M486.9,450.8c0-28.7,0.3-57.3-0.2-86c-0.1-7.2,2.5-9,10.3-8.6c21.3,0.9,42.7-1.2,63.9,1.2
		c33.5,3.8,54.3,19.9,57.9,44.6c4.5,31.5-11.6,56.5-43.1,67.3c-17.1,5.9-34.9,5.8-52.6,5.1c-8.4-0.3-11.7,1.1-11.2,9.3
		c0.8,18.5,0.1,37.1,0.4,55.5c0.1,4.6-1.4,6-6.9,6.1c-18.4,0.2-18.4,0.4-18.4-15.6C486.9,503.5,486.9,477.1,486.9,450.8z M512,414.9
		c0,11.1,0,22.3,0,33.4c0,2.4-0.6,5.7,3.8,5.6c17.4-0.3,35.1,2.1,51.8-4.5c17.3-6.8,26.5-21.1,24.8-39.2
		c-1.6-17.4-11.5-27.6-31.6-31.9c-13.7-3-27.9-1.9-41.8-2.3c-6-0.2-7.3,2.1-7.2,6.7C512.2,393.6,512,404.3,512,414.9z"/>
	<path class="st2" d="M1728.9,515.3c0,7-0.1,12.4,0.1,17.9c0.1,2.8-2,3.8-4.3,5.1c-23.4,13.7-66.2,14.1-89.5,1
		c-20.2-11.4-27.9-28.8-29.9-48.5c-2.3-22.5,0.6-44.1,18.1-62.5c23.2-24.3,69.4-28.7,95.2-8.4c13.2,10.4,18.5,24.4,20.6,39.3
		c0.8,5.8,0.6,11.7,1.2,17.5c0.6,5.3-1.7,7-7.9,6.9c-30.5-0.2-60.8-0.2-91.3-0.1c-11.6,0-11.6,0.1-9.8,9.6
		c6,33.3,40.4,44.2,76.8,32.5C1715,523.5,1721.3,519.9,1728.9,515.3z M1671.9,464.9L1671.9,464.9c11.7,0,23.3,0,35,0
		c3.2,0,6.2,0.4,6.7-3.9c1.4-13.4-10-29.3-25.2-33.3c-30.5-8-51.2,10.7-57,32.8c-1.2,4.6,2.2,4.3,5.6,4.3
		C1648.6,464.9,1660.2,464.9,1671.9,464.9z"/>
	<path class="st2" d="M1417.1,483.6c-14.9,0-29.8,0-44.8,0c-9.7,0-10.3,0.7-8.6,9.3c5.7,28.8,31.8,43.1,65.4,36
		c9.7-2.1,18.9-5.3,26.9-10.6c4.2-2.8,5.7-2.4,5.8,2.6c0.6,15.7-0.1,17.4-16.8,22.7c-18.5,5.9-37.6,7.2-56.9,3.4
		c-22.2-4.5-37.9-16.3-44.8-35c-10.9-29.3-10.2-58,12.8-83.7c25.8-28.8,87.6-29.8,107.4,6.5c7.9,14.4,8.9,29.8,8.6,45.4
		c-0.1,4.6-4.1,3.5-7,3.5C1449.2,483.7,1433.2,483.6,1417.1,483.6z M1403.8,464.9L1403.8,464.9c12,0,23.9,0,35.8,0
		c3.2,0,6.7,0.6,6.4-3.9c-1.1-18.9-12.3-34.3-37.1-34.9c-21.7-0.5-38.9,12.7-44.4,33.2c-1.2,4.6-0.2,5.9,5.1,5.8
		C1381.1,464.7,1392.5,464.9,1403.8,464.9z"/>
	<path class="st1" d="M742,529.3c-3.7,0.3-4.3,2.7-5.8,4.1c-19.6,18.8-56.6,21.1-77.8,4.9c-20.6-15.9-16.7-51.4,6.8-63.8
		c15.9-8.5,33.8-9.1,51.3-11.5c6.7-0.9,13.3-2,20-2.4c5.3-0.4,6.7-2.4,6.4-6.8c-1.4-21.1-18.1-31.4-44.3-27
		c-13.6,2.4-25.9,7.6-37.7,15.2c-1.9-7.2-0.8-13.7-0.8-20c0-2,1.9-3.1,3.8-3.8c25.6-11.2,52.3-15.4,79.4-5.2
		c18.7,7,24.4,22,24.8,38.2c0.6,29.7,0.2,59.4,0.4,89.1c0,4-1.5,5.7-6,5.3c-0.8-0.1-1.8,0-2.6,0c-4.9-0.2-10.9,1.1-14.6-0.8
		c-4.6-2.4-0.5-8-1.9-12C742.6,531.6,742.3,530.6,742,529.3z M743.3,488.2c-2.4-2.8,4.8-10.8-5.5-9.9c-16.7,1.5-33.8,2.6-49.9,7.5
		c-12.4,3.8-17,10.2-16.8,22.2c0.2,10.8,5.7,17.9,17.7,20.8c12.9,3.2,25.4,2,36.5-5.4C738.5,514.7,743.6,502.7,743.3,488.2z"/>
	<path class="st1" d="M926.1,442.4c0-7.8,0-13.8,0-19.8c0-1.5,0.5-2.9,2-3.9c17.7-10.8,65.5-18,88.2-2.1c11,7.7,16.3,18.4,16.7,29.9
		c0.9,31.5,0.5,62.9,0.7,94.4c0,3.2-1.2,4.8-5.1,4.5c-0.3,0-0.6,0-0.8,0c-18.5,1-18.5,1-19.5-17.4c-3.7-0.1-4.4,2.9-6,4.6
		c-17.9,18.7-53.9,22.2-76,7.2c-22.7-15.4-20.6-51,3.6-64.7c15.9-8.9,34.2-9.7,52-12.1c7-1,13.8-2.1,20.8-2.5
		c5.9-0.3,6.3-2.9,5.7-7.1c-3.3-22.4-17.6-31.1-44.5-26.7C950.6,428.9,938.4,433.7,926.1,442.4z M1008.7,489.2c0-2.3-0.1-4.6,0-6.8
		c0.2-3.2-1-4.9-5-4.3c-16.8,2.7-34.4,2.3-50.5,8c-13.6,4.8-18.8,13.6-16.3,26c1.9,9.9,11.9,17.1,24.9,18
		C989.5,532,1008.6,515.4,1008.7,489.2z"/>
	<path class="st1" d="M1517.7,475.5c0-13.4-0.2-26.9,0.1-40.4c0.1-4.6-1.5-6.6-7-6c-3.2,0.3-6.5-0.4-9.7,0.1
		c-9.4,1.5-10.8-2.4-11-9.6c-0.2-7.6,2.7-9.3,10.9-9c16.4,0.6,16.4,0.2,16.4-14.4c0-1.1,0-2,0-3.1c0-16.3,0.1-16.2,18-20.7
		c5.4-1.4,7.4-0.8,7.1,4.5c-0.4,9.1,0.2,18.3-0.2,27.4c-0.2,5,1.5,6.8,7.3,6.6c8.4-0.3,17,0.2,25.4-0.2c6-0.3,7.8,1.8,7.2,6.6
		c-0.3,2-0.3,4.1,0,6.1c0.6,4.8-1.9,6.1-7.1,5.9c-9.1-0.3-18.1,0-27.2-0.2c-4-0.1-5.7,1.1-5.7,4.8c0.2,25.1-0.5,50.3,0.3,75.4
		c0.6,17.8,14.8,25.4,33.7,18.9c5.1-1.8,5.8-0.9,6,3.4c0.6,14.1-0.5,15.3-16.7,17c-29.6,3.1-47.4-9.9-48.3-35.7
		C1517.4,500.4,1517.7,487.9,1517.7,475.5z"/>
	<path class="st3" d="M841.6,433.1c2.6-3.6,4.9-7.4,7.8-10.7c10.3-11.9,24.1-16.1,40.9-14.1c4.4,0.6,6.1,2.4,5.8,6
		c-0.1,0.5,0,1.1,0,1.5c-0.1,4.8,1.9,10.9-0.8,14.1c-3.1,3.7-9.1-1.3-14.1-1.5c-14.2-0.7-24.2,4.4-31.6,14.4
		c-7.5,10.2-9.6,21.6-9.7,33.5c0,20.6-0.2,41.1,0.2,61.7c0.1,5.7-1.1,8-8.5,7.7c-17.4-0.5-17.4-0.1-17.4-15.2
		c0-37.6,0.2-75.2-0.2-112.8c-0.1-6,1.7-7.7,8.8-7.4c17.1,0.7,17.2,0.4,17.2,15.6c0,2.3,0,4.5,0,6.7
		C840.5,432.9,841,433.1,841.6,433.1z"/>
	<path class="st4" d="M1802.6,434.9c6.1-8.9,11.8-17.4,22.4-22.5c9.1-4.4,18.6-5.6,28.8-3.6c3.4,0.7,5.1,1.8,5,5
		c-0.2,5.8-0.1,11.6-0.1,17.6c-24-7.6-44.8-3-53.8,27.6c-1.7,5.6-2.3,11.5-2.3,17.3c0.2,20.8-0.2,41.6,0.2,62.4
		c0.1,5.4-1.8,6.7-7.9,6.7c-17.4-0.1-17.4,0.2-17.4-15.3c0-37.1,0.2-74.1-0.2-111.2c-0.1-6.6,1.6-8.8,9.6-8.5
		c15.7,0.6,15.7,0.2,15.7,13.7C1802.6,427.8,1802.6,431.4,1802.6,434.9z"/>
	<path class="st5" d="M512,414.9c0-10.7,0.2-21.3-0.1-32c-0.1-4.7,1.1-7,7.2-6.7c13.9,0.4,28-0.7,41.8,2.3c20,4.3,30,14.5,31.6,31.9
		c1.6,18-7.5,32.4-24.8,39.2c-16.7,6.6-34.4,4.1-51.8,4.5c-4.4,0.1-3.8-3.1-3.8-5.6C512,437.3,512,426.2,512,414.9z"/>
	<path class="st5" d="M1671.9,464.9c-11.7,0-23.3,0-35,0c-3.2,0-6.8,0.3-5.6-4.3c5.9-22.1,26.6-40.8,57-32.8
		c15.1,4,26.6,19.8,25.2,33.3c-0.5,4.3-3.4,3.9-6.7,3.9C1695.2,464.8,1683.5,464.8,1671.9,464.9L1671.9,464.9z"/>
	<path class="st6" d="M1403.8,464.9c-11.3,0-22.7-0.2-34.1,0.1c-5.3,0.1-6.3-1.1-5.1-5.8c5.5-20.5,22.7-33.7,44.4-33.2
		c24.9,0.6,35.9,15.9,37.1,34.9c0.3,4.5-3.2,3.9-6.4,3.9C1427.7,464.9,1415.8,464.8,1403.8,464.9L1403.8,464.9z"/>
	<path class="st5" d="M743.3,488.2c0.4,14.6-4.7,26.5-17.9,35.2c-11,7.3-23.6,8.5-36.5,5.4c-12.1-2.9-17.5-10-17.7-20.8
		c-0.3-11.9,4.4-18.4,16.8-22.2c16.1-5,33.1-5.9,49.9-7.5C748.1,477.4,740.8,485.4,743.3,488.2z"/>
	<path class="st5" d="M1008.7,489.2c-0.1,26.2-19.2,42.8-47,40.9c-13.1-0.9-22.9-8-24.9-18c-2.4-12.4,2.8-21.3,16.3-26
		c16.2-5.7,33.7-5.4,50.5-8c4-0.7,5.2,1.1,5,4.3C1008.6,484.6,1008.7,486.9,1008.7,489.2z"/>
</g>
</svg>
